<?xml version="1.0" standalone="no"?>
<!DOCTYPE svg PUBLIC "-//W3C//DTD SVG 20010904//EN"
 "http://www.w3.org/TR/2001/REC-SVG-20010904/DTD/svg10.dtd">
<svg version="1.0" xmlns="http://www.w3.org/2000/svg"
 width="438.000000pt" height="438.000000pt" viewBox="0 0 438.000000 438.000000"
 preserveAspectRatio="xMidYMid meet">
<metadata>
Created by potrace 1.11, written by Peter Selinger 2001-2013
</metadata>
<g transform="translate(0.000000,438.000000) scale(0.100000,-0.100000)"
fill="#000000" stroke="none">
<path d="M2306 3498 c-19 -62 -44 -146 -56 -186 l-22 -73 -489 7 -488 7 -20
-47 c-31 -71 -121 -321 -121 -334 0 -13 147 -17 165 -4 6 4 29 54 51 112 l40
105 491 -4 491 -4 30 99 c17 55 52 169 78 254 26 85 49 161 51 168 4 9 -16 12
-80 12 l-86 0 -35 -112z"/>
<path d="M1650 2588 c-23 -73 -48 -155 -57 -181 l-15 -48 -308 7 c-197 4 -309
3 -313 -3 -3 -5 -29 -96 -56 -202 l-50 -192 82 3 82 3 31 115 30 115 313 0
313 0 79 255 c43 140 79 256 79 258 0 1 -38 2 -85 2 l-84 0 -41 -132z"/>
<path d="M4165 2229 c52 -146 75 -334 56 -458 -30 -192 -153 -430 -298 -576
-186 -188 -398 -263 -713 -252 -175 6 -279 28 -366 77 l-53 29 -10 -32 c-5
-18 -37 -122 -71 -232 -34 -110 -79 -257 -101 -327 l-40 -128 -287 0 -287 0
-32 -78 c-18 -42 -33 -80 -33 -85 0 -4 169 -6 377 -5 l376 3 110 357 110 357
38 -24 c99 -63 259 -90 484 -82 123 4 166 10 240 31 282 85 489 289 614 610
50 127 65 221 58 351 -10 176 -91 419 -161 484 l-27 25 16 -45z"/>
<path d="M3150 2142 c-23 -7 -33 -34 -117 -307 -51 -165 -93 -303 -93 -307 0
-10 77 -30 119 -32 l33 -1 72 235 73 235 58 9 c54 8 161 -1 222 -19 20 -6 21
-5 14 27 -4 18 -13 43 -19 54 -18 35 -79 82 -119 94 -47 14 -209 22 -243 12z"/>
<path d="M1793 1808 c-5 -7 -16 -38 -25 -68 -9 -30 -33 -108 -53 -172 l-36
-118 -728 0 -728 0 -27 -72 c-14 -40 -26 -76 -26 -81 0 -4 367 -6 817 -5 l816
3 78 255 c42 140 75 258 72 263 -8 13 -150 8 -160 -5z"/>
</g>
</svg>
