<?xml version="1.0" standalone="no"?>
<!DOCTYPE svg PUBLIC "-//W3C//DTD SVG 20010904//EN"
 "http://www.w3.org/TR/2001/REC-SVG-20010904/DTD/svg10.dtd">
<svg version="1.0" xmlns="http://www.w3.org/2000/svg"
 width="520.000000pt" height="520.000000pt" viewBox="0 0 520.000000 520.000000"
 preserveAspectRatio="xMidYMid meet">
<metadata>
Created by potrace 1.11, written by Peter Selinger 2001-2013
</metadata>
<g transform="translate(0.000000,520.000000) scale(0.100000,-0.100000)"
fill="#000000" stroke="none">
<path d="M2417 5174 c-1 -1 -29 -5 -62 -8 -78 -7 -178 -21 -230 -33 -11 -2
-31 -6 -45 -9 -14 -3 -43 -10 -65 -15 -22 -5 -49 -12 -59 -14 -10 -2 -33 -9
-51 -15 -18 -6 -41 -12 -51 -15 -21 -4 -114 -36 -159 -55 -16 -7 -39 -16 -50
-20 -138 -53 -365 -176 -489 -263 -50 -36 -159 -119 -181 -138 -11 -10 -42
-38 -69 -61 -86 -75 -222 -216 -278 -290 -13 -16 -33 -41 -46 -56 -24 -28
-162 -230 -162 -236 0 -2 -16 -30 -35 -62 -75 -124 -191 -384 -220 -494 -2 -8
-12 -44 -23 -80 -23 -79 -51 -194 -57 -235 -2 -16 -9 -57 -15 -90 -32 -179
-35 -594 -5 -755 3 -14 7 -41 10 -60 2 -19 7 -46 10 -60 3 -14 8 -38 11 -55
22 -125 91 -340 159 -499 59 -139 102 -219 230 -425 14 -22 67 -93 82 -109 7
-7 13 -16 13 -20 0 -4 14 -23 31 -42 156 -180 227 -252 372 -375 56 -47 147
-115 155 -115 6 0 12 -4 14 -8 2 -5 32 -27 68 -50 36 -23 70 -46 77 -52 7 -5
19 -10 28 -10 8 0 15 -4 15 -8 0 -7 201 -108 310 -155 95 -42 319 -110 435
-132 85 -17 208 -36 270 -42 138 -15 522 -7 615 12 13 2 42 7 65 10 22 4 71
13 109 22 37 8 73 16 80 17 53 11 270 81 341 111 154 65 295 137 415 213 63
40 225 159 272 200 120 103 238 219 238 234 0 5 5 6 10 3 6 -3 10 -3 10 2 0 7
14 26 73 93 69 79 227 309 227 330 0 6 4 10 9 10 5 0 13 10 17 23 4 12 10 24
13 27 4 3 28 48 53 100 147 301 231 585 265 904 15 140 9 521 -11 611 -2 11
-7 43 -10 70 -4 28 -9 57 -11 65 -2 8 -6 31 -9 50 -11 69 -83 319 -113 390 -3
8 -7 17 -8 20 -14 42 -83 194 -116 255 -62 118 -120 217 -130 225 -3 3 -12 16
-19 29 -7 14 -17 30 -22 35 -5 6 -29 38 -54 71 -114 152 -201 247 -348 382
-37 34 -78 68 -90 77 -13 8 -29 21 -37 28 -22 21 -148 112 -209 150 -81 51
-263 150 -280 153 -3 1 -32 14 -65 29 -58 27 -204 84 -235 91 -8 2 -46 13 -85
25 -38 12 -79 23 -90 25 -11 3 -31 7 -45 10 -213 47 -364 63 -593 62 -92 0
-168 -1 -170 -3z"/>
</g>
</svg>
